<?xml version="1.0" standalone="no"?><!DOCTYPE svg PUBLIC "-//W3C//DTD SVG 1.1//EN" "http://www.w3.org/Graphics/SVG/1.1/DTD/svg11.dtd"><svg t="1780630833871" class="icon" viewBox="0 0 1024 1024" version="1.1" xmlns="http://www.w3.org/2000/svg" p-id="5146" width="256" height="256" xmlns:xlink="http://www.w3.org/1999/xlink"><path d="M768 896H469.33V682.67a42.66 42.66 0 0 0-29.16-40.48l-256-85.34A42.7 42.7 0 0 0 128 597.33V896H85.33a42.67 42.67 0 0 0 0 85.33H768a42.67 42.67 0 1 0 0-85.33z m-554.67 0V656.52L384 713.42V896zM597.33 640c117.67 0 213.34-95.71 213.34-213.33S715 213.33 597.33 213.33 384 309 384 426.67 479.71 640 597.33 640z m0-341.33a128 128 0 1 1-128 128 128.13 128.13 0 0 1 128-128zM597.33 170.67A42.67 42.67 0 0 0 640 128V85.33a42.67 42.67 0 0 0-85.33 0V128a42.67 42.67 0 0 0 42.66 42.67z" p-id="5147" fill="#07c160"></path><path d="M554.67 725.33V768a42.67 42.67 0 1 0 85.33 0v-42.67a42.67 42.67 0 0 0-85.33 0zM938.67 384H896a42.67 42.67 0 1 0 0 85.33h42.67a42.67 42.67 0 0 0 0-85.33zM256 469.33h42.67a42.67 42.67 0 0 0 0-85.33H256a42.67 42.67 0 1 0 0 85.33zM808.52 258.15a42.56 42.56 0 0 0 30.17-12.5l30.16-30.17a42.66 42.66 0 0 0-60.33-60.33l-30.17 30.16a42.67 42.67 0 0 0 30.17 72.84zM838.69 607.69A42.66 42.66 0 1 0 778.35 668l30.17 30.17a42.66 42.66 0 0 0 60.33-60.34zM356 245.65a42.66 42.66 0 0 0 60.33-60.34l-30.16-30.16a42.66 42.66 0 0 0-60.34 60.33z" p-id="5148" fill="#07c160"></path></svg>